<svg id="instagram" xmlns="http://www.w3.org/2000/svg" width="40.357" height="40.441" viewBox="0 0 40.357 40.441">
  <g id="Group_530" data-name="Group 530" transform="translate(0 0)">
    <path id="Path_474" data-name="Path 474" d="M670.449,352.4c.074.484.137.979.211,1.464a1.456,1.456,0,0,0,.084.284v.864a1.891,1.891,0,0,0-.484.305q-10.063,10.063-20.1,20.136a3.278,3.278,0,0,0-.305.495h-.864c-.495-.074-.99-.147-1.485-.232-.274-.042-.537-.105-.8-.158a2.805,2.805,0,0,1,.295-.4l8.246-8.278a2.2,2.2,0,0,0,.295-.484l.463-.063a5.712,5.712,0,0,0,3.991-2.264,6.281,6.281,0,0,0,1.137-2.57,2.8,2.8,0,0,0,.4-.295q4.218-4.218,8.415-8.425A4.521,4.521,0,0,1,670.449,352.4Z" transform="translate(-630.397 -335.507)" fill="#a41dad"/>
    <path id="Path_475" data-name="Path 475" d="M509.066,192.242l1.137-.158a1.183,1.183,0,0,0,.274-.084h1.58a1.614,1.614,0,0,1-.232.421q-9.715,9.747-19.441,19.483a2.341,2.341,0,0,1-.484.305c.074-1,.147-2,.232-3a1.583,1.583,0,0,0,.348-.242q8.183-8.2,16.355-16.387A1.587,1.587,0,0,0,509.066,192.242Z" transform="translate(-491.9 -192)" fill="#fbc232"/>
    <path id="Path_476" data-name="Path 476" d="M514.084,192c.506.074,1.022.158,1.527.242.232.042.453.095.685.137a4.392,4.392,0,0,1-.379.495q-4.123,4.139-8.257,8.278a2.741,2.741,0,0,0-.284.4c-.116.021-.232.053-.348.063a5.905,5.905,0,0,0-5.1,4.834,2.8,2.8,0,0,0-.4.295q-4.186,4.17-8.352,8.362a3,3,0,0,1-.579.369c-.063-.611-.126-1.222-.2-1.832a1.609,1.609,0,0,0,.316-.2q10.521-10.521,21.01-21.042a1.6,1.6,0,0,0,.211-.4Z" transform="translate(-492.347 -192)" fill="#fcb041"/>
    <path id="Path_477" data-name="Path 477" d="M690.585,408.7c-.284.053-.579.116-.864.168H688.7c.621-.642,1.243-1.285,1.875-1.917,1.654-1.653,3.307-3.317,4.96-4.971q6.4-6.4,12.8-12.785v1.106c-.053.295-.116.579-.169.874a2.745,2.745,0,0,0-.421.242l-16.9,16.935A1.536,1.536,0,0,0,690.585,408.7Z" transform="translate(-667.974 -368.432)" fill="#901cb9"/>
    <path id="Path_478" data-name="Path 478" d="M513.479,192a1.321,1.321,0,0,1-.211.4q-10.474,10.521-20.989,21.042a1.608,1.608,0,0,1-.316.2l-.063-1.422a3.159,3.159,0,0,0,.484-.305q9.731-9.731,19.441-19.483a1.8,1.8,0,0,0,.232-.421C512.542,192,513.016,192,513.479,192Z" transform="translate(-491.9 -192)" fill="#fbb939"/>
    <path id="Path_479" data-name="Path 479" d="M697.495,378.464q-6.4,6.4-12.8,12.785-2.48,2.48-4.96,4.971c-.632.632-1.253,1.274-1.875,1.917H676.6a2.159,2.159,0,0,1,.305-.5q10.047-10.079,20.1-20.136a2.886,2.886,0,0,1,.484-.305Z" transform="translate(-657.148 -357.696)" fill="#981cb4"/>
    <path id="Path_480" data-name="Path 480" d="M499.4,213.691a20.018,20.018,0,0,1,12.827-13.449c.284-.105.579-.158.864-.242a2.227,2.227,0,0,1-.274.495q-6.429,6.461-12.88,12.912A2.378,2.378,0,0,1,499.4,213.691Z" transform="translate(-498.61 -199.157)" fill="#fad623"/>
    <path id="Path_481" data-name="Path 481" d="M494.569,208.591a2.171,2.171,0,0,0,.537-.284q6.445-6.445,12.88-12.912a1.873,1.873,0,0,0,.274-.495l2.686-.6a1.582,1.582,0,0,1-.242.348q-8.183,8.2-16.355,16.387a2.89,2.89,0,0,1-.348.242Z" transform="translate(-493.779 -194.058)" fill="#fad028"/>
    <path id="Path_482" data-name="Path 482" d="M617.111,494.125c-.6-.2-1.211-.4-1.811-.611a2.738,2.738,0,0,1,.284-.4q3.7-3.712,7.383-7.414a2.8,2.8,0,0,0,.295-.4h2.37a3.769,3.769,0,0,1-.358.548q-3.934,3.965-7.878,7.909A1.913,1.913,0,0,0,617.111,494.125Z" transform="translate(-602.304 -454.411)" fill="#bc1c9d"/>
    <path id="Path_483" data-name="Path 483" d="M607.873,485.3a2.8,2.8,0,0,1-.295.4q-3.7,3.712-7.383,7.414a3.475,3.475,0,0,0-.284.4c-.6-.263-1.211-.527-1.811-.79a2.749,2.749,0,0,1,.284-.4c2.18-2.19,4.36-4.371,6.54-6.572a2.124,2.124,0,0,0,.263-.453Z" transform="translate(-586.915 -454.411)" fill="#c91c95"/>
    <path id="Path_484" data-name="Path 484" d="M591.052,485.3a2.128,2.128,0,0,1-.263.453l-6.54,6.572a3.473,3.473,0,0,0-.284.4c-.558-.305-1.106-.621-1.664-.927a2.844,2.844,0,0,1,.284-.411c1.885-1.9,3.781-3.791,5.666-5.687a2.8,2.8,0,0,0,.295-.4Z" transform="translate(-572.779 -454.411)" fill="#d71c8c"/>
    <path id="Path_485" data-name="Path 485" d="M494.3,338.225a3.194,3.194,0,0,0,.579-.369q4.186-4.17,8.352-8.362a2.8,2.8,0,0,1,.4-.295c-.032.716-.053,1.422-.084,2.138a2.421,2.421,0,0,0-.453.263c-2.686,2.675-5.361,5.371-8.046,8.046a2.8,2.8,0,0,1-.4.295C494.542,339.373,494.426,338.794,494.3,338.225Z" transform="translate(-494.047 -314.751)" fill="#fd9e4e"/>
    <path id="Path_486" data-name="Path 486" d="M566.436,484.047a2.8,2.8,0,0,1-.295.4c-1.885,1.9-3.781,3.791-5.666,5.687a2.84,2.84,0,0,0-.284.411c-.864-.642-1.727-1.274-2.591-1.917.242-.158.474-.316.716-.474a53.678,53.678,0,0,0,5.929-3.77,5.72,5.72,0,0,0,.537-.484C565.33,483.942,565.878,483.995,566.436,484.047Z" transform="translate(-550.681 -453.158)" fill="#e31c85"/>
    <path id="Path_487" data-name="Path 487" d="M632.5,494.125a3.352,3.352,0,0,1,.274-.369q3.934-3.949,7.878-7.909a2.888,2.888,0,0,0,.358-.548h1.811a2.294,2.294,0,0,1-.295.484l-8.246,8.278a3.927,3.927,0,0,0-.295.4C633.5,494.347,632.995,494.231,632.5,494.125Z" transform="translate(-617.693 -454.411)" fill="#af1ca6"/>
    <path id="Path_488" data-name="Path 488" d="M512.711,410.615c-.274-.495-.537-1-.811-1.5a2.726,2.726,0,0,0,.548-.358q3.238-3.223,6.466-6.466a2.8,2.8,0,0,1,.4-.295v2.285a4.512,4.512,0,0,0-.632.442c-1.875,1.864-3.728,3.739-5.6,5.6A2.445,2.445,0,0,1,512.711,410.615Z" transform="translate(-509.794 -379.884)" fill="#fe6d6b"/>
    <path id="Path_489" data-name="Path 489" d="M497.8,358.1a2.8,2.8,0,0,0,.4-.295q4.028-4.028,8.046-8.046a1.893,1.893,0,0,1,.453-.263v1.422a2.807,2.807,0,0,0-.4.295q-3.791,3.791-7.583,7.593c-.179.179-.369.358-.558.537C498.032,358.936,497.916,358.526,497.8,358.1Z" transform="translate(-497.179 -332.913)" fill="#fd9555"/>
    <path id="Path_490" data-name="Path 490" d="M548.206,473.571c-.242.158-.474.316-.716.474-.4-.369-.79-.737-1.19-1.106a2.433,2.433,0,0,0,.379-.263q2.37-2.37,4.729-4.739a4.233,4.233,0,0,0,.274-.337c.39.326.779.642,1.18.969a2.849,2.849,0,0,1-.284.411c-1.369,1.38-2.749,2.749-4.107,4.128A1.818,1.818,0,0,0,548.206,473.571Z" transform="translate(-540.571 -438.575)" fill="#f93284"/>
    <path id="Path_491" data-name="Path 491" d="M501.2,371.525c.19-.179.369-.358.558-.537q3.791-3.807,7.583-7.593a2.8,2.8,0,0,1,.4-.295v1.348a2.8,2.8,0,0,0-.4.295q-3.618,3.618-7.225,7.235c-.179.19-.379.358-.569.537C501.421,372.168,501.305,371.852,501.2,371.525Z" transform="translate(-500.221 -345.081)" fill="#fe8c5c"/>
    <path id="Path_492" data-name="Path 492" d="M515.914,390.011a2.8,2.8,0,0,0-.4.295c-2.159,2.148-4.307,4.318-6.466,6.466a2.9,2.9,0,0,1-.548.358c-.137-.284-.274-.579-.4-.864.116-.105.242-.2.358-.305q3.539-3.539,7.056-7.067a2.8,2.8,0,0,1,.4-.295Z" transform="translate(-506.394 -367.895)" fill="#fe7866"/>
    <path id="Path_493" data-name="Path 493" d="M512.693,377.048a2.8,2.8,0,0,0-.4.295q-3.539,3.539-7.056,7.067c-.105.105-.232.2-.358.305l-.379-.948c.19-.179.39-.348.569-.537q3.618-3.618,7.225-7.235a2.8,2.8,0,0,1,.4-.295Z" transform="translate(-503.173 -356.354)" fill="#fe8262"/>
    <path id="Path_494" data-name="Path 494" d="M519.6,430.119a3.351,3.351,0,0,0,.369-.274c1.864-1.864,3.728-3.739,5.6-5.6a4.514,4.514,0,0,1,.632-.442c.021.453.042.9.063,1.348a1.826,1.826,0,0,0-.495.253q-2.622,2.607-5.245,5.234a2.847,2.847,0,0,1-.411.284C519.948,430.645,519.779,430.382,519.6,430.119Z" transform="translate(-516.683 -399.388)" fill="#fe5e70"/>
    <path id="Path_495" data-name="Path 495" d="M546.224,462.064a4.266,4.266,0,0,1-.274.337c-1.58,1.58-3.149,3.159-4.729,4.739a2.433,2.433,0,0,1-.379.263l-.642-.706c.116-.105.242-.2.358-.305,1.569-1.569,3.138-3.149,4.708-4.708a2.844,2.844,0,0,1,.411-.284C545.856,461.611,546.045,461.832,546.224,462.064Z" transform="translate(-535.113 -433.028)" fill="#fe3a7f"/>
    <path id="Path_496" data-name="Path 496" d="M524.5,442.271a2.847,2.847,0,0,0,.411-.284c1.748-1.748,3.486-3.5,5.245-5.234a1.825,1.825,0,0,1,.495-.253c.063.316.126.632.179.948a2.744,2.744,0,0,0-.4.284c-1.674,1.674-3.339,3.349-5.013,5.013-.105.105-.232.211-.348.305C524.879,442.8,524.69,442.535,524.5,442.271Z" transform="translate(-521.067 -410.75)" fill="#fe5474"/>
    <path id="Path_497" data-name="Path 497" d="M541.113,454.4a2.847,2.847,0,0,0-.411.284L536,459.392a3.4,3.4,0,0,1-.358.305l-.537-.632a1.327,1.327,0,0,1,.084-.126c1.717-1.727,3.444-3.454,5.161-5.171a1.34,1.34,0,0,1,.295-.168C540.808,453.874,540.956,454.137,541.113,454.4Z" transform="translate(-530.55 -426.05)" fill="#fe437b"/>
    <path id="Path_498" data-name="Path 498" d="M536,446.453a.9.9,0,0,0-.295.168q-2.591,2.575-5.161,5.171a.531.531,0,0,0-.084.126c-.19-.242-.369-.474-.558-.716.116-.105.242-.2.348-.305,1.674-1.675,3.339-3.349,5.013-5.013a2.732,2.732,0,0,1,.4-.284C535.777,445.874,535.892,446.158,536,446.453Z" transform="translate(-525.898 -418.892)" fill="#fe4b78"/>
    <path id="Path_499" data-name="Path 499" d="M790.735,279.7c.411.674.821,1.348,1.222,2.033.074.126.116.284.179.421a2.8,2.8,0,0,0-.4.295q-3.428,3.412-6.835,6.845a2.8,2.8,0,0,1-.4.295V285.8a2.8,2.8,0,0,0,.4-.295c1.832-1.832,3.654-3.665,5.487-5.487A3.245,3.245,0,0,1,790.735,279.7Z" transform="translate(-753.685 -270.464)" fill="#d71c8c"/>
    <path id="Path_500" data-name="Path 500" d="M792.7,317.9c.19.6.379,1.211.569,1.811a3.236,3.236,0,0,0-.442.295l-8.025,8.025a2.8,2.8,0,0,1-.4.295v-2.454a2.8,2.8,0,0,0,.4-.295q3.7-3.7,7.4-7.4A3.17,3.17,0,0,1,792.7,317.9Z" transform="translate(-753.595 -304.641)" fill="#bc1c9d"/>
    <path id="Path_501" data-name="Path 501" d="M783.874,343.815a2.808,2.808,0,0,0,.4-.295l8.025-8.025a2.493,2.493,0,0,1,.442-.295c.126.611.253,1.211.369,1.822a4.391,4.391,0,0,0-.495.379q-4.218,4.218-8.415,8.425a2.806,2.806,0,0,1-.4.295C783.81,345.342,783.842,344.573,783.874,343.815Z" transform="translate(-753.058 -320.119)" fill="#af1ca6"/>
    <path id="Path_502" data-name="Path 502" d="M792.788,304.39a2.443,2.443,0,0,0-.484.284q-3.712,3.7-7.4,7.4a2.8,2.8,0,0,1-.4.295v-2.138a2.8,2.8,0,0,0,.4-.295q3.428-3.412,6.835-6.845a3.93,3.93,0,0,1,.4-.295C792.357,303.348,792.567,303.874,792.788,304.39Z" transform="translate(-753.685 -291.131)" fill="#c91c95"/>
    <path id="Path_503" data-name="Path 503" d="M707.772,212.2c.527.295,1.053.579,1.58.874-.053.042-.105.074-.158.116q-3.065,3.065-6.129,6.15a1.563,1.563,0,0,0-.179.295H700.6a2.127,2.127,0,0,1,.263-.453c2.191-2.212,4.4-4.413,6.6-6.624C707.572,212.442,707.677,212.316,707.772,212.2Z" transform="translate(-678.621 -210.073)" fill="#fe6d6b"/>
    <path id="Path_504" data-name="Path 504" d="M771.361,246.2c.39.411.769.832,1.159,1.243-.116.179-.242.369-.358.548-.379.632-.769,1.264-1.148,1.9a1.613,1.613,0,0,0-.421.232c-.716.706-1.432,1.422-2.138,2.138-.369.369-.716.758-1.085,1.137-.453-.611-.906-1.222-1.369-1.822a1.482,1.482,0,0,0,.242-.19q2.448-2.449,4.887-4.9A1.952,1.952,0,0,0,771.361,246.2Z" transform="translate(-737.133 -240.492)" fill="#f93284"/>
    <path id="Path_505" data-name="Path 505" d="M786.223,260.543c.379-.632.758-1.264,1.148-1.9.116-.19.242-.369.358-.548.558.758,1.116,1.527,1.664,2.285-.116.105-.242.2-.358.305-1.833,1.832-3.654,3.665-5.487,5.487a2.8,2.8,0,0,1-.4.295c-.053-.39-.095-.79-.147-1.18.074-.063.179-.105.232-.19.537-.769,1.085-1.538,1.6-2.327C785.317,262.039,785.759,261.281,786.223,260.543Z" transform="translate(-752.343 -251.139)" fill="#e31c85"/>
    <path id="Path_506" data-name="Path 506" d="M634.7,204.873a2.743,2.743,0,0,1,.284-.4q4.123-4.139,8.257-8.278a4.4,4.4,0,0,0,.379-.495l1.1.253a2.438,2.438,0,0,1-.284.484q-4,4.028-8.015,8.036a2.809,2.809,0,0,0-.295.4C635.648,204.862,635.174,204.873,634.7,204.873Z" transform="translate(-619.661 -195.31)" fill="#fd9e4e"/>
    <path id="Path_507" data-name="Path 507" d="M648.2,206.92a2.8,2.8,0,0,1,.295-.4q4-4.028,8.014-8.036a2.172,2.172,0,0,0,.284-.484c.39.105.79.211,1.18.326a2.8,2.8,0,0,1-.295.4l-7.772,7.8a2.8,2.8,0,0,0-.295.4C649.148,206.92,648.674,206.92,648.2,206.92Z" transform="translate(-631.739 -197.368)" fill="#fd9555"/>
    <path id="Path_508" data-name="Path 508" d="M661.7,209.6a2.8,2.8,0,0,1,.295-.4l7.772-7.8a3.938,3.938,0,0,0,.295-.4c.369.126.748.263,1.116.39-.19.2-.369.4-.569.6q-3.6,3.6-7.193,7.214a2.8,2.8,0,0,0-.295.4Z" transform="translate(-643.817 -200.052)" fill="#fe8c5c"/>
    <path id="Path_509" data-name="Path 509" d="M675.1,212.915a2.806,2.806,0,0,1,.295-.4q3.6-3.618,7.193-7.214c.19-.19.379-.4.569-.6.316.126.632.263.948.39-.169.179-.337.369-.506.537q-3.428,3.444-6.867,6.888a2.8,2.8,0,0,0-.295.4Z" transform="translate(-655.806 -203.363)" fill="#fe8262"/>
    <path id="Path_510" data-name="Path 510" d="M687.9,216.225a2.806,2.806,0,0,1,.295-.4q3.428-3.444,6.867-6.888c.179-.179.337-.358.506-.537.284.137.569.263.853.4-.105.116-.2.242-.305.358q-3.3,3.317-6.6,6.624a2.121,2.121,0,0,0-.263.453C688.8,216.225,688.342,216.225,687.9,216.225Z" transform="translate(-667.258 -206.673)" fill="#fe7866"/>
    <path id="Path_511" data-name="Path 511" d="M722.3,226.961a2.741,2.741,0,0,1,.179-.295c2.043-2.054,4.086-4.1,6.129-6.15.042-.042.105-.074.158-.116.242.158.474.305.716.463a2.845,2.845,0,0,1-.284.411q-2.654,2.67-5.3,5.318a2.053,2.053,0,0,0-.253.411C723.2,226.993,722.742,226.982,722.3,226.961Z" transform="translate(-698.035 -217.409)" fill="#fe5e70"/>
    <path id="Path_512" data-name="Path 512" d="M735,231.04a2.254,2.254,0,0,1,.253-.411c1.759-1.78,3.539-3.549,5.3-5.318a2.84,2.84,0,0,0,.284-.411c.263.19.527.369.79.558-.105.116-.2.242-.305.358-1.664,1.674-3.339,3.349-5,5.024a3.458,3.458,0,0,0-.284.4C735.685,231.166,735.348,231.1,735,231.04Z" transform="translate(-709.398 -221.435)" fill="#fe5474"/>
    <path id="Path_513" data-name="Path 513" d="M758.382,234.9l.7.6c-.105.116-.2.242-.305.358q-2.354,2.354-4.7,4.718a2.83,2.83,0,0,0-.284.411c-.263-.158-.526-.305-.79-.463a4.021,4.021,0,0,1,.274-.411q2.4-2.417,4.8-4.813C758.181,235.174,758.276,235.037,758.382,234.9Z" transform="translate(-725.502 -230.382)" fill="#fe437b"/>
    <path id="Path_514" data-name="Path 514" d="M760.4,245.987a2.845,2.845,0,0,1,.284-.411q2.354-2.37,4.7-4.718c.105-.116.211-.232.305-.358l.653.59a1.875,1.875,0,0,1-.211.274c-1.632,1.632-3.254,3.265-4.887,4.9-.074.074-.168.126-.242.19C760.8,246.313,760.6,246.145,760.4,245.987Z" transform="translate(-732.123 -235.392)" fill="#fe3a7f"/>
    <path id="Path_515" data-name="Path 515" d="M751.045,230.605c-.105.126-.2.274-.316.39q-2.4,2.417-4.8,4.813a2.148,2.148,0,0,0-.274.411c-.284-.116-.569-.232-.853-.337a2.737,2.737,0,0,1,.284-.4c1.664-1.674,3.339-3.349,5-5.024.105-.116.211-.232.305-.358C750.613,230.268,750.835,230.437,751.045,230.605Z" transform="translate(-718.166 -226.087)" fill="#fe4b78"/>
    <path id="Path_516" data-name="Path 516" d="M739.955,425.3a19.106,19.106,0,0,1-2.054,5.508,19.812,19.812,0,0,1-7.067,7.383,18.765,18.765,0,0,1-6.235,2.5,1.692,1.692,0,0,1,.211-.39q7.377-7.393,14.755-14.786A1.267,1.267,0,0,1,739.955,425.3Z" transform="translate(-700.093 -400.73)" fill="#801cc4"/>
    <path id="Path_517" data-name="Path 517" d="M723.851,409.822a1.7,1.7,0,0,0-.39.211q-7.377,7.377-14.755,14.786a1.4,1.4,0,0,0-.211.39l-1.9.316a2.9,2.9,0,0,1,.242-.348l16.9-16.935a1.682,1.682,0,0,1,.421-.242C724.061,408.611,723.956,409.211,723.851,409.822Z" transform="translate(-683.989 -385.252)" fill="#881cbf"/>
    <path id="Path_518" data-name="Path 518" d="M599.324,282.763c.284.116.569.232.853.337.263.158.527.305.79.463l.6.474c.453.611.906,1.222,1.369,1.822.137.411.284.821.421,1.232.053.39.095.79.147,1.18v8.383c-.032.769-.053,1.527-.084,2.3a6.279,6.279,0,0,1-1.137,2.57,5.733,5.733,0,0,1-3.991,2.264c-.158.021-.316.042-.463.063h-9.394c-.548-.053-1.106-.095-1.653-.147-.6-.242-1.2-.495-1.811-.737-.39-.326-.779-.642-1.18-.969-.179-.232-.369-.453-.548-.674-.158-.263-.305-.527-.463-.79-.116-.284-.232-.569-.337-.864-.063-.316-.126-.632-.179-.948-.021-.453-.042-.9-.063-1.348v-7.825c.032-.716.053-1.422.084-2.138a5.906,5.906,0,0,1,5.1-4.834c.116-.011.232-.042.348-.063.474,0,.948,0,1.422-.011h7.8c.442.021.9.032,1.337.053C598.64,282.637,598.977,282.7,599.324,282.763Zm.937,3.159c-.337-.274-.674-.537-1.022-.811-.284-.126-.558-.263-.842-.39-.379-.095-.758-.19-1.137-.274-.39,0-.79-.01-1.18-.01h-6.308c-.474.01-.948.021-1.422.021a4.752,4.752,0,0,0-4.223,4.234c-.011.474-.021.948-.021,1.422v6.4c0,.369.011.737.011,1.106.074.337.147.685.221,1.022.147.326.305.642.453.969.211.284.432.569.642.853l1.264.948a4.406,4.406,0,0,0,2.6.548h6.319c.432,0,.864.032,1.3.011a4.726,4.726,0,0,0,3.96-2.254,5.969,5.969,0,0,0,.727-3.749v-6.235a8.471,8.471,0,0,0,0-.9,3.1,3.1,0,0,0-.548-1.706C600.788,286.713,600.525,286.312,600.262,285.923Z" transform="translate(-572.69 -272.969)" fill="#fefcfc"/>
    <path id="Path_519" data-name="Path 519" d="M569.055,476.8c.6.242,1.2.495,1.811.737-.179.158-.348.337-.537.484a52.707,52.707,0,0,1-5.929,3.77,2.125,2.125,0,0,1,.263-.453c1.369-1.38,2.738-2.749,4.107-4.128A2.839,2.839,0,0,0,569.055,476.8Z" transform="translate(-556.765 -446.806)" fill="#ee338c"/>
    <path id="Path_520" data-name="Path 520" d="M779.521,286.039c-.137-.411-.284-.821-.421-1.232.358-.379.716-.758,1.085-1.137.706-.716,1.422-1.432,2.138-2.138a2.044,2.044,0,0,1,.421-.232c-.463.748-.906,1.5-1.39,2.222-.516.79-1.064,1.559-1.6,2.327A2.022,2.022,0,0,1,779.521,286.039Z" transform="translate(-748.853 -271.895)" fill="#ee338c"/>
    <path id="Path_521" data-name="Path 521" d="M608.578,300.8h2.443a2.33,2.33,0,0,1-.263.369c-.832.843-1.664,1.664-2.5,2.517a1.928,1.928,0,0,0-.242.463,5.482,5.482,0,0,0-4.3,4.307,1.814,1.814,0,0,0-.39.232c-.843.832-1.674,1.675-2.517,2.507a3.641,3.641,0,0,1-.516.337v-2.443a4.1,4.1,0,0,0,.347-.242q3.839-3.839,7.688-7.7A2.9,2.9,0,0,0,608.578,300.8Z" transform="translate(-588.884 -289.342)" fill="#fe6d6b"/>
    <path id="Path_522" data-name="Path 522" d="M671.154,380.058H669.1a2.334,2.334,0,0,1,.263-.369c.853-.864,1.717-1.717,2.57-2.591a3.015,3.015,0,0,0,.39-.611,5.732,5.732,0,0,0,3.381-3.381,2.473,2.473,0,0,0,.516-.305c.927-.906,1.832-1.822,2.749-2.738a2.336,2.336,0,0,1,.369-.263v2.054a4.071,4.071,0,0,0-.348.242q-3.807,3.807-7.6,7.625A3.118,3.118,0,0,0,671.154,380.058Z" transform="translate(-650.438 -351.075)" fill="#d71c8c"/>
    <path id="Path_523" data-name="Path 523" d="M688.6,397.415a4.09,4.09,0,0,1,.242-.348q3.791-3.807,7.6-7.625a2.91,2.91,0,0,1,.348-.242v2.212a1.7,1.7,0,0,0-.39.211q-2.7,2.685-5.371,5.382a1.4,1.4,0,0,0-.211.39C690.074,397.415,689.337,397.415,688.6,397.415Z" transform="translate(-667.884 -368.432)" fill="#c91c95"/>
    <path id="Path_524" data-name="Path 524" d="M709.6,416.382a1.7,1.7,0,0,1,.211-.39q2.685-2.7,5.371-5.382a1.4,1.4,0,0,1,.39-.211,5.819,5.819,0,0,1-.727,3.749,4.726,4.726,0,0,1-3.96,2.254C710.464,416.4,710.032,416.382,709.6,416.382Z" transform="translate(-686.673 -387.399)" fill="#bc1c9d"/>
    <path id="Path_525" data-name="Path 525" d="M731.4,326.3a3.1,3.1,0,0,1,.548,1.706,6.314,6.314,0,0,1,0,.9,1.378,1.378,0,0,0-.316.211c-.611.727-1.211,1.474-1.833,2.191-.379.432-.79.821-1.19,1.232a5.934,5.934,0,0,0-.706-2.907c.569-.548,1.127-1.1,1.685-1.653.053-.053.053-.169.074-.253.105-.105.211-.211.327-.316a3.351,3.351,0,0,0,.421-.242C730.754,326.879,731.07,326.584,731.4,326.3Z" transform="translate(-703.045 -312.156)" fill="#ee338c"/>
    <path id="Path_526" data-name="Path 526" d="M627.6,433.291a4.406,4.406,0,0,1-2.6-.548c.105-.116.2-.242.316-.348.937-.937,1.875-1.885,2.812-2.822a4.232,4.232,0,0,1,.337-.274,5.77,5.77,0,0,0,2.77.716,2.188,2.188,0,0,1-.179.253c-.706.621-1.411,1.232-2.117,1.843C628.486,432.5,628.044,432.9,627.6,433.291Z" transform="translate(-610.982 -404.309)" fill="#ee338c"/>
    <path id="Path_527" data-name="Path 527" d="M608.578,300.8a4.085,4.085,0,0,1-.242.348q-3.839,3.855-7.688,7.7a2.886,2.886,0,0,1-.347.242v-1.264a1.7,1.7,0,0,0,.39-.211q3.207-3.191,6.4-6.414a1.4,1.4,0,0,0,.211-.39C607.735,300.8,608.157,300.8,608.578,300.8Z" transform="translate(-588.884 -289.342)" fill="#fe7866"/>
    <path id="Path_528" data-name="Path 528" d="M607.4,300.621a1.7,1.7,0,0,1-.211.39q-3.191,3.207-6.4,6.414a1.4,1.4,0,0,1-.39.211v-1.348a4.089,4.089,0,0,0,.348-.242q2.543-2.543,5.087-5.1a2.9,2.9,0,0,0,.242-.348C606.508,300.621,606.961,300.621,607.4,300.621Z" transform="translate(-588.973 -289.163)" fill="#fe8262"/>
    <path id="Path_529" data-name="Path 529" d="M617.729,420.89a2.729,2.729,0,0,0-.337.274c-.937.937-1.875,1.875-2.812,2.822l-.316.348L613,423.386a1.7,1.7,0,0,1,.179-.295c1-1.011,2-2.012,3-3.012a1.561,1.561,0,0,1,.295-.179C616.886,420.237,617.307,420.563,617.729,420.89Z" transform="translate(-600.246 -395.899)" fill="#f93284"/>
    <path id="Path_530" data-name="Path 530" d="M605.977,300.8a4.072,4.072,0,0,1-.242.348q-2.543,2.559-5.087,5.1a2.89,2.89,0,0,1-.347.242c.011-.474.021-.948.021-1.422a2.52,2.52,0,0,0,.474-.326q1.722-1.706,3.423-3.423a2.606,2.606,0,0,0,.327-.484Z" transform="translate(-588.884 -289.342)" fill="#fe8c5c"/>
    <path id="Path_531" data-name="Path 531" d="M732.195,354.633c.4-.411.821-.8,1.19-1.232.621-.716,1.222-1.464,1.833-2.191a1.377,1.377,0,0,1,.316-.211v1.969a2.332,2.332,0,0,0-.369.263c-.916.906-1.822,1.832-2.749,2.738a2.3,2.3,0,0,1-.516.305C731.995,355.739,732.09,355.181,732.195,354.633Z" transform="translate(-706.624 -334.255)" fill="#e31c85"/>
    <path id="Path_532" data-name="Path 532" d="M649.7,436.87c.442-.39.885-.779,1.338-1.169.706-.611,1.411-1.232,2.117-1.843a1.538,1.538,0,0,0,.179-.253c.548-.105,1.1-.2,1.643-.305a3.338,3.338,0,0,1-.39.611c-.843.874-1.717,1.727-2.57,2.591a2.335,2.335,0,0,0-.263.369Z" transform="translate(-633.081 -407.887)" fill="#e31c85"/>
    <path id="Path_533" data-name="Path 533" d="M604.823,301.1a3,3,0,0,1-.326.484c-1.137,1.148-2.275,2.3-3.423,3.423a2.918,2.918,0,0,1-.474.326A4.743,4.743,0,0,1,604.823,301.1Z" transform="translate(-589.152 -289.61)" fill="#fd9555"/>
    <path id="Path_534" data-name="Path 534" d="M611.018,413.29a1.7,1.7,0,0,0-.295.179c-1,1-2,2-3,3.012a1.564,1.564,0,0,0-.179.295c-.211-.284-.432-.569-.642-.853a1.3,1.3,0,0,1,.084-.126c1.043-1.053,2.1-2.1,3.138-3.149a1.3,1.3,0,0,1,.263-.147C610.607,412.763,610.807,413.027,611.018,413.29Z" transform="translate(-594.789 -389.278)" fill="#fe3a7f"/>
    <path id="Path_535" data-name="Path 535" d="M707.738,303.6c.284.126.558.263.843.39-.126.147-.263.284-.379.442-.147.19-.274.39-.411.579a1.4,1.4,0,0,0-1.169,1.211,3.08,3.08,0,0,0-1.359,1.285c-.284-.168-.569-.326-.864-.495a2.412,2.412,0,0,1,.263-.379c.748-.758,1.5-1.517,2.254-2.264C707.18,304.105,707.465,303.863,707.738,303.6Z" transform="translate(-682.021 -291.847)" fill="#fe437b"/>
    <path id="Path_536" data-name="Path 536" d="M606.639,404.9a.714.714,0,0,0-.263.147q-1.58,1.564-3.138,3.149a1.339,1.339,0,0,0-.084.126c-.147-.326-.305-.642-.453-.969a2.337,2.337,0,0,0,.369-.263c1.043-1.022,2.075-2.054,3.107-3.086Z" transform="translate(-591.031 -381.673)" fill="#fe437b"/>
    <path id="Path_537" data-name="Path 537" d="M673.6,304.149a1.612,1.612,0,0,1,.242-.463c.821-.843,1.664-1.674,2.5-2.517a2.338,2.338,0,0,0,.263-.369h1.264a3.758,3.758,0,0,1-.305.484c-.779.79-1.569,1.569-2.349,2.37a2.79,2.79,0,0,0-.274.411C674.5,304.1,674.042,304.128,673.6,304.149Z" transform="translate(-654.464 -289.342)" fill="#fe5e70"/>
    <path id="Path_538" data-name="Path 538" d="M600.4,376.675a2.716,2.716,0,0,0,.516-.337c.843-.832,1.675-1.674,2.517-2.507a1.59,1.59,0,0,1,.39-.232c-.032.442-.074.9-.105,1.338a2.432,2.432,0,0,0-.379.263l-2.559,2.559a2.333,2.333,0,0,1-.369.263C600.4,377.57,600.4,377.117,600.4,376.675Z" transform="translate(-588.973 -354.475)" fill="#fe5e70"/>
    <path id="Path_539" data-name="Path 539" d="M604.2,397.458c-1.032,1.032-2.064,2.064-3.107,3.086a2.332,2.332,0,0,1-.369.263c-.074-.337-.147-.685-.221-1.022a2.126,2.126,0,0,0,.421-.253c.874-.864,1.738-1.738,2.612-2.6a2.044,2.044,0,0,1,.421-.232C604.039,396.953,604.123,397.205,604.2,397.458Z" transform="translate(-589.063 -375.142)" fill="#fe4b78"/>
    <path id="Path_540" data-name="Path 540" d="M700.849,301.274c-.274.263-.558.506-.832.779-.758.748-1.506,1.506-2.254,2.264a2.426,2.426,0,0,0-.263.379c-.263-.095-.537-.179-.8-.274a2.053,2.053,0,0,1,.274-.495c.821-.843,1.664-1.674,2.485-2.507a2.352,2.352,0,0,0,.253-.421C700.091,301.084,700.47,301.179,700.849,301.274Z" transform="translate(-675.131 -289.521)" fill="#fe4b78"/>
    <path id="Path_541" data-name="Path 541" d="M603.865,387.306a1.613,1.613,0,0,0-.421.232c-.874.864-1.738,1.738-2.612,2.6a1.863,1.863,0,0,1-.421.253c0-.369-.01-.737-.01-1.106a2.333,2.333,0,0,0,.369-.263l2.559-2.559a3.442,3.442,0,0,1,.379-.263Z" transform="translate(-588.973 -365.748)" fill="#fe5474"/>
    <path id="Path_542" data-name="Path 542" d="M690.407,300.911a2.127,2.127,0,0,1-.253.421c-.821.842-1.664,1.664-2.485,2.506a2.229,2.229,0,0,0-.274.495c-.369-.053-.737-.116-1.1-.169a2.793,2.793,0,0,1,.274-.411c.779-.79,1.569-1.569,2.349-2.37a3.761,3.761,0,0,0,.305-.484C689.617,300.9,690.018,300.9,690.407,300.911Z" transform="translate(-665.827 -289.431)" fill="#fe5474"/>
    <path id="Path_543" data-name="Path 543" d="M748.485,316.19c-.326.295-.642.59-.979.864a2.745,2.745,0,0,1-.421.242,1.425,1.425,0,0,0-.084-1.664c.232-.211.474-.421.706-.632C747.969,315.39,748.232,315.79,748.485,316.19Z" transform="translate(-720.134 -302.046)" fill="#f93284"/>
    <path id="Path_544" data-name="Path 544" d="M738.311,308.111c-.232.211-.474.421-.706.632a1.49,1.49,0,0,0-1.106-.421c.137-.2.263-.4.411-.579.116-.158.253-.295.379-.442C737.637,307.574,737.974,307.837,738.311,308.111Z" transform="translate(-710.74 -295.157)" fill="#fe3a7f"/>
    <path id="Path_545" data-name="Path 545" d="M637.54,331.8c.369.053.737.116,1.1.169.263.095.537.179.8.274.284.169.569.326.864.495.295.253.579.516.874.769l.758,1.043a5.963,5.963,0,0,1,.706,2.907c-.095.548-.2,1.106-.295,1.653a5.76,5.76,0,0,1-3.381,3.381c-.548.105-1.1.2-1.643.305a5.8,5.8,0,0,1-2.77-.716c-.421-.326-.832-.653-1.253-.99-.211-.263-.411-.527-.621-.79-.158-.305-.316-.6-.474-.906-.084-.253-.169-.505-.242-.758l-.158-1.106c.032-.442.074-.9.105-1.337a5.468,5.468,0,0,1,4.3-4.307C636.645,331.863,637.1,331.832,637.54,331.8Zm-1.18,2.012a3.461,3.461,0,0,0-2.664,2.612c0,.548-.011,1.106-.011,1.653.095.263.19.537.274.8.221.305.442.621.663.927a3.135,3.135,0,0,0,1.569.937,3.563,3.563,0,0,0,4.56-3.254,5.616,5.616,0,0,0-.221-1.232,2.567,2.567,0,0,0-.937-1.6c-.253-.179-.516-.358-.769-.537-.295-.095-.6-.2-.9-.295A2.3,2.3,0,0,0,636.36,333.812Z" transform="translate(-617.066 -317.077)" fill="#fefcfc"/>
    <path id="Path_546" data-name="Path 546" d="M726.467,316.983a1.45,1.45,0,0,1,1.106.421,1.408,1.408,0,0,1,.084,1.664c-.105.105-.211.211-.326.316a1.362,1.362,0,0,1-1.58-.084,1.553,1.553,0,0,1-.464-1.106A1.419,1.419,0,0,1,726.467,316.983Z" transform="translate(-700.707 -303.819)" fill="#fefcfc"/>
    <path id="Path_547" data-name="Path 547" d="M721.837,339a1.38,1.38,0,0,0,1.58.084c-.021.084-.021.2-.074.253-.558.558-1.127,1.106-1.685,1.653l-.758-1.043C721.205,339.632,721.521,339.316,721.837,339Z" transform="translate(-696.783 -323.519)" fill="#f93284"/>
    <path id="Path_548" data-name="Path 548" d="M714.322,329.606l-.948.948c-.295-.253-.579-.516-.874-.769a3.023,3.023,0,0,1,1.359-1.285A1.554,1.554,0,0,0,714.322,329.606Z" transform="translate(-689.267 -314.124)" fill="#fe3a7f"/>
    <path id="Path_549" data-name="Path 549" d="M663.671,359a2.54,2.54,0,0,1,.937,1.6,5,5,0,0,0-.421.39c-1.2,1.2-2.412,2.4-3.6,3.612a2.558,2.558,0,0,0-.316.484,3.091,3.091,0,0,1-1.569-.937,2.336,2.336,0,0,1,.263-.369q2.2-2.212,4.413-4.423C663.481,359.242,663.576,359.116,663.671,359Z" transform="translate(-641.133 -341.412)" fill="#f93284"/>
    <path id="Path_550" data-name="Path 550" d="M673.6,378.686a2.944,2.944,0,0,1,.316-.484c1.19-1.211,2.4-2.412,3.6-3.612.137-.137.284-.263.421-.39a6.316,6.316,0,0,1,.221,1.232A3.552,3.552,0,0,1,673.6,378.686Z" transform="translate(-654.464 -355.012)" fill="#ee338c"/>
    <path id="Path_551" data-name="Path 551" d="M657.945,354.348c-.105.116-.19.242-.305.358-1.474,1.474-2.938,2.949-4.413,4.423a2.937,2.937,0,0,0-.263.369c-.221-.305-.442-.621-.664-.927.116-.105.253-.19.358-.305q2.085-2.069,4.149-4.16c.105-.105.242-.2.358-.305C657.439,353.99,657.692,354.169,657.945,354.348Z" transform="translate(-635.407 -336.76)" fill="#fe3a7f"/>
    <path id="Path_552" data-name="Path 552" d="M649.8,354.147c0-.548.011-1.106.011-1.653a1.29,1.29,0,0,0,.358-.19c.706-.7,1.411-1.4,2.106-2.106a1.609,1.609,0,0,0,.2-.316,2.266,2.266,0,0,1,1.58.021,2.352,2.352,0,0,1-.211.316q-1.848,1.864-3.718,3.728C650.021,354.021,649.905,354.073,649.8,354.147Z" transform="translate(-633.171 -333.137)" fill="#fe4b78"/>
    <path id="Path_553" data-name="Path 553" d="M649.8,355.355a2.348,2.348,0,0,0,.316-.211q1.864-1.864,3.718-3.728a2.353,2.353,0,0,0,.211-.316c.295.095.6.2.9.295-.116.105-.242.2-.358.305q-2.085,2.069-4.149,4.16c-.105.105-.242.2-.358.305C649.979,355.892,649.884,355.618,649.8,355.355Z" transform="translate(-633.171 -334.344)" fill="#fe437b"/>
    <path id="Path_554" data-name="Path 554" d="M652.464,350.9a1.613,1.613,0,0,1-.2.316c-.7.706-1.39,1.411-2.106,2.106a1.455,1.455,0,0,1-.358.19A3.476,3.476,0,0,1,652.464,350.9Z" transform="translate(-633.171 -334.165)" fill="#fe5474"/>
  </g>
</svg>
