<svg xmlns="http://www.w3.org/2000/svg" width="40.441" height="40.441" viewBox="0 0 40.441 40.441">
  <g id="linkedin" transform="translate(0)">
    <path id="XMLID_108_" d="M53.742,29.921A20.221,20.221,0,1,0,33.521,50.141,20.2,20.2,0,0,0,53.742,29.921Z" transform="translate(-13.3 -9.7)" fill="#3d83d9"/>
    <g id="Group_527" data-name="Group 527" transform="translate(10.586 8.59)">
      <rect id="Rectangle_231" data-name="Rectangle 231" width="4.675" height="13.377" transform="translate(0.003 6.703)" fill="#fff"/>
      <path id="Path_385" data-name="Path 385" d="M53.23,40.2a2.344,2.344,0,0,0-2.281,2.873,2.368,2.368,0,0,0,1.8,1.774,2.326,2.326,0,0,0,2.816-2.281A2.356,2.356,0,0,0,53.23,40.2Z" transform="translate(-50.89 -40.2)" fill="#fff"/>
      <path id="Path_386" data-name="Path 386" d="M89.7,68.112C89.392,65.577,88.124,64,84.717,64c-2.422,0-3.38.366-3.943,1.436h0V64H77V77.377h3.886V70.365c0-1.746.338-3.07,2.506-3.07,2.14,0,2.309,1.633,2.309,3.182v6.9H89.73C89.7,77.377,89.786,68.7,89.7,68.112Z" transform="translate(-69.647 -57.297)" fill="#fff"/>
    </g>
  </g>
</svg>
