<svg xmlns="http://www.w3.org/2000/svg" width="40.441" height="40.441" viewBox="0 0 40.441 40.441">
  <g id="twitter" transform="translate(0)">
    <path id="XMLID_49_" d="M53.742,29.921A20.221,20.221,0,1,0,33.521,50.141,20.2,20.2,0,0,0,53.742,29.921Z" transform="translate(-13.3 -9.7)" fill="#00a9ff"/>
    <path id="XMLID_47_" d="M66.285,53.966a8.975,8.975,0,0,1-2.591.648,4.737,4.737,0,0,0,2.084-2.478c.028-.056-.056-.113-.113-.084a9.515,9.515,0,0,1-2.957,1.07A4.975,4.975,0,0,0,59.131,51.6a4.874,4.874,0,0,0-4.9,4.844,4.693,4.693,0,0,0,.141,1.1A14.257,14.257,0,0,1,44.262,52.5c0-.028-.028,0-.056,0a4.9,4.9,0,0,0-.648,2.394,4.845,4.845,0,0,0,2.112,3.971c.028.028,0,.056-.028.056a4.711,4.711,0,0,1-2.084-.591c-.028,0-.028,0-.028.028a6.039,6.039,0,0,0,.338,1.774,4.871,4.871,0,0,0,3.6,2.985,4.954,4.954,0,0,1-1.3.169A4.373,4.373,0,0,1,45.3,63.2a.028.028,0,0,0-.028.028,4.939,4.939,0,0,0,4.506,3.323c.028,0,.028.028.028.056a9.956,9.956,0,0,1-6.027,2.028c-.394,0-.789-.028-1.183-.056a13.978,13.978,0,0,0,7.519,2.169,13.684,13.684,0,0,0,9.209-3.323,14.265,14.265,0,0,0,4.45-7.519,13.174,13.174,0,0,0,.338-2.929,4.563,4.563,0,0,0-.028-.62A9.866,9.866,0,0,0,66.4,54.078C66.426,53.994,66.369,53.937,66.285,53.966Z" transform="translate(-34.348 -39.8)" fill="#fff"/>
  </g>
</svg>
