<svg id="youtube" xmlns="http://www.w3.org/2000/svg" width="40.375" height="40.441" viewBox="0 0 40.375 40.441">
  <g id="Group_528" data-name="Group 528" transform="translate(0 0)">
    <path id="Path_387" data-name="Path 387" d="M578,262.735v3.245c-.063.358-.126.706-.179,1.064a20.264,20.264,0,0,1-17.066,17.276c-.464.074-.917.148-1.369.221h-3.234a1.365,1.365,0,0,0-.274-.084c-1.074-.19-2.16-.316-3.213-.59a20.225,20.225,0,0,1,2.149-39.546c.474-.063.938-.147,1.412-.221h3.15a1.53,1.53,0,0,0,.2.074c1.159.211,2.339.337,3.476.632a20.136,20.136,0,0,1,14.706,16.56C577.846,261.819,577.93,262.272,578,262.735Zm-20.057,8.743c2.275-.084,4.625-.158,6.974-.284a2.531,2.531,0,0,0,2.655-2.265,15.36,15.36,0,0,0,.284-2.507,31.462,31.462,0,0,0-.19-6.3c-.232-1.527-.864-2.623-2.865-2.718-1.917-.095-3.834-.19-5.752-.19-2.76.011-5.52.063-8.269.2-1.707.084-2.381.758-2.771,2.433-.053.242-.095.5-.126.737a36.658,36.658,0,0,0,.01,7.448c.232,2.149.98,3.044,3,3.16C553.216,271.331,555.545,271.384,557.947,271.479Z" transform="translate(-537.629 -244.1)" fill="#e9412c"/>
    <path id="Path_388" data-name="Path 388" d="M643.494,382.947c-2.4-.095-4.719-.147-7.047-.274-2.023-.116-2.77-1.011-3-3.16a36.663,36.663,0,0,1-.011-7.448,4.324,4.324,0,0,1,.126-.737c.4-1.675,1.064-2.349,2.771-2.433,2.749-.137,5.509-.19,8.269-.2,1.917-.011,3.835.095,5.752.19,2,.095,2.634,1.19,2.865,2.718a31.466,31.466,0,0,1,.19,6.3,15.354,15.354,0,0,1-.284,2.507,2.538,2.538,0,0,1-2.655,2.265C648.118,382.789,645.769,382.862,643.494,382.947Zm3.245-7.374c-1.833-.959-3.613-1.886-5.436-2.834V378.4C643.125,377.448,644.906,376.531,646.739,375.573Z" transform="translate(-623.176 -355.568)" fill="#fefdfd"/>
    <path id="Path_389" data-name="Path 389" d="M715.136,409.934c-1.833.948-3.613,1.875-5.436,2.823V407.1C711.523,408.048,713.3,408.975,715.136,409.934Z" transform="translate(-691.573 -389.929)" fill="#e9422d"/>
  </g>
</svg>
